# xmcd CD database file
#
# Track frame offsets:
#	150
#	18880
#	35813
#	54293
#	74534
#	93692
#	106330
#	122596
#	144814
#	161855
#	183645
#
# Disc length: 2760 seconds
#
# Revision: 0
# Processed by: cddbd v1.4PL0 Copyright (c) Steve Scherf et al.
# Submitted via: CDex 1.40Release
#
DISCID=970ac60b
DTITLE=Jeff Finlin - Somewere South of Wonder
DYEAR=2002
DGENRE=Country
TTITLE0=I am the King
TTITLE1=Sugar blue
TTITLE2=Summertime
TTITLE3=Goodtime
TTITLE4=Delta down
TTITLE5=Which way?
TTITLE6=Alchemy
TTITLE7=Miracle along the way
TTITLE8=Where do we go
TTITLE9=Sugar blue too
TTITLE10=Somewhere south of wonder
EXTD=YEAR: 2002 ID3G: 2
EXTT0=
EXTT1=
EXTT2=
EXTT3=
EXTT4=
EXTT5=
EXTT6=
EXTT7=
EXTT8=
EXTT9=
EXTT10=
PLAYORDER=
